<svg xmlns="http://www.w3.org/2000/svg" width="800" height="545.58" viewBox="0 0 800 545.58" xmlns:xlink="http://www.w3.org/1999/xlink" role="img" artist="Katerina Limpitsouni" source="https://undraw.co/"><g transform="translate(-207.523 -134.108)"><g transform="translate(207.523 134.108)"><path d="M596.337,641.065c-27.764,0-57.934-4.126-87.9-12.059-37.059-9.811-71.038-24.619-98.263-42.825l.806-1.206c27.1,18.117,60.922,32.858,97.828,42.628,33.351,8.83,66.951,12.921,97.158,11.841l.052,1.45Q601.232,641.066,596.337,641.065Z" transform="translate(-265.352 -389.662)" fill="#090814"/><path d="M593.837,350.663c-9.017-2.936-18.29-5.669-27.566-8.125-53.372-14.13-105.837-19.146-151.725-14.5l-.146-1.443c46.059-4.656,98.7.37,152.243,14.546,9.3,2.463,18.6,5.2,27.644,8.148Z" transform="translate(-267.009 -287.697)" fill="#090814"/><path d="M289.305,480.719c-22.245-21.9-31.641-44.745-26.456-64.329,6.651-25.132,36.211-42.509,81.095-47.675l.166,1.442c-44.26,5.094-73.365,22.08-79.855,46.6-5.046,19.059,4.214,41.406,26.071,62.925Z" transform="translate(-207.046 -304.874)" fill="#090814"/><path d="M695.621,556.1l-.465-1.374c24.83-8.4,40.361-21.919,44.913-39.112,5.786-21.855-6.784-47.217-35.393-71.412-28.755-24.319-70.221-44.5-116.762-56.818l.37-1.4c46.742,12.375,88.41,32.658,117.326,57.113,29.061,24.578,41.8,50.464,35.859,72.891C736.79,533.669,720.935,547.54,695.621,556.1Z" transform="translate(-311.667 -313.696)" fill="#090814"/><path d="M313.7,624.3c-54.554-24.2-96.592-55.586-118.369-88.389l1.209-.8c21.627,32.578,63.444,63.781,117.747,87.866Z" transform="translate(-176.662 -377.825)" fill="#090814"/><circle cx="9.333" cy="9.333" r="9.333" transform="translate(354.954 237.353)" fill="#e6e6e6"/><path d="M441.405,597.806l-.143-.024a3.9,3.9,0,0,0,.566-.426Z" transform="translate(-277.54 -394.516)" fill="#fff"/><path d="M910.1,361.806l.143-.024a3.9,3.9,0,0,1-.566-.426Z" transform="translate(-461.19 -301.988)" fill="#fff"/><path d="M343.405,294.806l-.143-.024a3.9,3.9,0,0,0,.566-.426Z" transform="translate(-239.119 -275.72)" fill="#fff"/><g transform="translate(83.125)"><path d="M715.954,165.193a10.624,10.624,0,0,1-1.639-.128l-60.909-9.556a10.611,10.611,0,0,1-8.792-12.393l12.707-69.4A10.577,10.577,0,0,1,669.3,65.135l59.917,8.832a10.611,10.611,0,0,1,8.917,12.244l-11.715,70.121a10.651,10.651,0,0,1-10.47,8.862Z" transform="translate(-644.437 -65.02)" fill="#d6d6e3"/><path d="M732.761,119.227a3.02,3.02,0,0,1-.562-.053l-47.757-8.909a3.046,3.046,0,0,1,1.117-5.989l47.757,8.909a3.047,3.047,0,0,1-.555,6.042Z" transform="translate(-658.85 -80.081)" fill="#090814"/><path d="M726.675,146.784a3,3,0,0,1-.416-.028l-45.787-6.235a3.046,3.046,0,0,1,.823-6.036l45.787,6.235a3.046,3.046,0,0,1-.407,6.065Z" transform="translate(-657.268 -91.695)" fill="#090814"/><path d="M706.086,174.125a3.109,3.109,0,0,1-.49-.04l-30.946-5.008a3.046,3.046,0,0,1,.974-6.014l30.946,5.008a3.047,3.047,0,0,1-.484,6.054Z" transform="translate(-655.06 -102.67)" fill="#090814"/></g><g transform="translate(116.389 183.388)"><path d="M23.976,509.091a10.619,10.619,0,0,1-10.4-8.63L.395,431.154a10.569,10.569,0,0,1,8.079-12.33l59.069-13.38a10.609,10.609,0,0,1,12.734,8.2l14.372,69.624a10.644,10.644,0,0,1-8.143,12.514L26.25,508.845a10.724,10.724,0,0,1-2.274.246Z" transform="translate(-0.204 -405.178)" fill="#d6d6e3"/><path d="M29.536,463.17a3.047,3.047,0,0,1-.556-6.042l47.754-8.921a3.046,3.046,0,0,1,1.119,5.989L30.1,463.118a3.025,3.025,0,0,1-.563.053Z" transform="translate(-10.303 -421.688)" fill="#090814"/><path d="M36.6,491.739a3.047,3.047,0,0,1-.7-6.011l44.953-10.7a3.047,3.047,0,1,1,1.411,5.928l-44.953,10.7a3.071,3.071,0,0,1-.708.083Z" transform="translate(-13.018 -431.979)" fill="#090814"/><path d="M41.549,523.081a3.047,3.047,0,0,1-.628-6.027l30.668-6.495a3.046,3.046,0,1,1,1.263,5.96l-30.668,6.495a3.072,3.072,0,0,1-.635.067Z" transform="translate(-14.918 -445.637)" fill="#090814"/></g><g transform="translate(383.897 90.138)"><path d="M73.06,87.437a7.833,7.833,0,0,0,7.659-6.315L94.372,10.7a7.8,7.8,0,0,0-7.49-9.282L20.907,0a7.75,7.75,0,0,0-7.831,6.346L.136,74.639a7.8,7.8,0,0,0,7.24,9.239l65.263,3.547c.141.008.282.012.422.012Z" transform="translate(0 0)" fill="#10b981"/><g transform="translate(33.284 9.495) rotate(8)"><path d="M36.7,18.352a22.261,22.261,0,0,1-.357,3.968,19.5,19.5,0,0,1-1.929,4.785c-1.632,2.9-3.382,3.982-4.821,6.82-.247.191-.5.363-.761.532-.517.334-.573,1.966-1.122,2.247,0,0-.008,0-.011.008a2.075,2.075,0,0,0-.283.944v.008c-.277,1.622-.517,4.921-.793,6.873-.037.236-.071.453-.109.644-.094.517-.191.847-.3.887-1.337.517-1.906-.191-3.372,0-.787.105-4.8.749-5.618.749-2.318,0-3.573-.79-5.449-1.637-.131-.057-.262-.116-.4-.176-.051-.019-.093-.041-.142-.06-.538-.228-1.048-5.989-1.554-8.169a.014.014,0,0,1,0-.011c-.105-.453-.21-.749-.315-.809l-.078-.045c-.334-.191-.659-.4-.978-.618-1.93-3.214-5.656-6.271-7.5-11.27A21.065,21.065,0,0,1,0,18.352a18.352,18.352,0,1,1,36.7,0Z" transform="translate(0.289 9.868)" fill="#e6e6e6"/><path d="M36.638,23.043a19.5,19.5,0,0,1-1.929,4.783c-1.632,2.9-3.382,3.982-4.821,6.82a27.307,27.307,0,0,0-2.33,9.065c-.034.266.037.569,0,.831-.085.58.019.476-.334,1-.161.09-.259-.037-.312-.283a7.821,7.821,0,0,1-.022-1.88,24.759,24.759,0,0,1,.816-4.993v-.008c.09-.326.187-.641.283-.944,1.734-5.281,4.933-7.674,6.382-10.438,7.614-14.488-6.457-30.66-21.955-25.035-.831.3-.787.479-.831.5A16.9,16.9,0,0,0,8.343,3.958C1.476,8.63-.988,17.877,2.109,25.5c1.677,4.124,5.191,6.45,7.465,11.136q.2.408.393.854a.014.014,0,0,0,0,.011,22.9,22.9,0,0,1,1.7,8.229c0,.051.008.1.008.146.135.011.266.019.393.03,1.989.172,3.277.491,3.944.146l.734.075c.243.34,4.335-.075,4.989-.083H21.9a45.605,45.605,0,0,0,4.9-.139c.083-.008.168-.019.251-.03a.438.438,0,0,1,.334.5,3.963,3.963,0,0,1-1,1.993c-.768.449-13.277.678-14.472-.165a1.877,1.877,0,0,1-.663-2.244c-.022-.105-.482-.4-.5-.5-.224-1.275.041-4.505-1.494-8.15A9.834,9.834,0,0,0,8.6,36.013C6.667,32.8,2.941,29.743,1.1,24.74A18.7,18.7,0,0,1,.115,16.35C.778,9.308,6.851,2.38,13.667.63A18.673,18.673,0,0,1,36.638,23.043Z" transform="translate(0 9.149)" fill="#010001"/><path d="M15.362,0c1.187,1.129.553,1.511,0,2.828-.7-.157-12.64.606-14.3,0A1.695,1.695,0,0,1,.558,0a66.685,66.685,0,0,0,14.8,0Z" transform="translate(11.212 57.902)" fill="#010001"/><path d="M16.306.333c.467,1.039-.427,1.676-.832,2.495l-.831.166L1.5,2.828C.711,2.675.209,1.567,0,.832a.491.491,0,0,1,.25-.5L1.336,0A118.189,118.189,0,0,0,14.393.333a1.9,1.9,0,0,1,1.913,0Z" transform="translate(10.933 60.896)" fill="#010001"/><path d="M6.7,19.229H6.351V13.6L0,.147.312,0,6.7,13.516Z" transform="translate(9.763 28.467)" fill="#0f0f10"/><path d="M.163.029c.7-.479.716,5.14.5,5.323C-.159,6.044-.073.19.163.029Z" transform="translate(18.383 0)" fill="#f2f2f2"/><path d="M.029.017C.584-.34,1.859,4.981,1.777,5.256,1.307,6.823-.23.184.029.017Z" transform="translate(12.86 0.511)" fill="#f2f2f2"/><path d="M1.074,0c.66-.174-.451,5-.582,5.24C-.754,7.513.717.1,1.074,0Z" transform="translate(23.126 0.524)" fill="#f2f2f2"/><path d="M.283,20.141,0,13.882l.006-.024L3.377,0l.335.082L.347,13.916l.28,6.21Z" transform="translate(21.543 27.563)" fill="#0f0f10"/></g></g><circle cx="9.333" cy="9.333" r="9.333" transform="translate(333.842 58.055)" fill="#e6e6e6"/><circle cx="9.333" cy="9.333" r="9.333" transform="translate(253.958 60.608)" fill="#10b981"/><circle cx="9.333" cy="9.333" r="9.333" transform="translate(84.849 174.055)" fill="#10b981"/><circle cx="9.333" cy="9.333" r="9.333" transform="translate(0 136.131)" fill="#e6e6e6"/></g><g transform="translate(662.258 219.931)"><path d="M197.526,287.148l31.689,108.324A23.752,23.752,0,0,1,208.49,425.8l-34.579,3.027,23.616-141.681h0Z" transform="translate(115.084 -139.576)" fill="#10b981"/><path d="M197.526,287.148l31.689,108.324A23.752,23.752,0,0,1,208.49,425.8l-34.579,3.027,23.616-141.681h0Z" transform="translate(115.084 -139.576)" opacity="0.1" style="isolation:isolate"/><path d="M583.858,231.828l42.388,70.1L646.2,276.645,607.2,215.577c1.386-7.1-.292-15.351-5.251-22.473-8.676-12.461-24.07-16.741-34.382-9.561s-11.639,23.1-2.962,35.564c4.959,7.122,12.111,11.556,19.255,12.722Z" transform="translate(-558.872 -104.24)" fill="#ed9da0"/><path d="M345.352,510.953l5.09,17.312-.173,17.554s33.479,40.268,21.145,127.364l-156.869-1.967,18.687-140.15,112.12-20.113Z" transform="translate(-56.104 -213.426)" fill="#090814"/><path d="M372.841,131a44.486,44.486,0,1,0-57.814,42.452l6.632,5.344-11.907,41.676,13.875,9.815,43.841-36.534S358,181.69,352.918,168.087A44.438,44.438,0,0,0,372.841,131h0Z" transform="translate(-101.25 -73.372)" fill="#ed9da0"/><path d="M241.928,250.495c15.706-.239,44.74,50.163,44.74,50.163l23.85-8.435,49.051-17.365,37.593-15.472L397,260.522c.148-.356.309-.716.486-1.08,3.952-8.144,15.432-17.725,48.025-15.826l15.347,12.113,2.087,1.659a47.334,47.334,0,0,1,19.333,3.011c6.98,2.806,13.961,8.042,17.263,17.828,1.711,5.048,1.711,15.484.684,28.743-3.713,48.008-21.016,150.066-21.016,150.066l-109.234-14.46-8.058.188s-.958-11-1.814-25.407c-.53-8.452-1.009-18.05-1.283-27.289-.188-6.775-.24-13.345-.12-19.128.017-.36.017-.719.034-1.078.325-10.556,1.386-18.2,3.661-19.042,0,0-7.066-.188-17.263-.565-24.637-.924-67.58-2.994-73.705-6.33-8.657-4.7-54.047-67.854-54.047-67.854s8.828-25.321,24.551-25.578h0Z" transform="translate(-184.781 -125.132)" fill="#10b981"/><path d="M246.874,91.32s-.765,15.443,15.215,36.384c23.23,30.441,20.914,2.53,27.784,11.907,1.491,2.036,1.813,9.381,1.323,11.907-1.937,9.984-13.4.235-1.323,34.4,1.8,2.657,3.914,2.011,6.615,1.985.209,0-1.161-.264,3.969-1.323,2.449-.506,5.876-1.1,9.984-1.8,47.729-8.041,64.582-68.265,27.691-99.6-8.394-7.129-16.631-12.532-23.783-15.035-21.541-7.54-70.621-2.639-80.044,21.83-1.659,4.307,2.665,10,2.665,10Z" transform="translate(-48.383 -66.9)" fill="#010102"/><ellipse cx="34.041" cy="34.041" rx="34.041" ry="34.041" transform="translate(245.565 89.504)" fill="#010102"/></g></g></svg>