<svg xmlns="http://www.w3.org/2000/svg" width="825.84998" height="506.44" viewBox="0 0 825.84998 506.44" xmlns:xlink="http://www.w3.org/1999/xlink"><path d="m438.22,378.66c-1.76999,10.70999-11.09,18.91-22.29001,18.91s-20.53-8.20001-22.29001-18.91h-57.04001v123.61002h158.66v-123.60999h-57.04001l.00003-.00003Z" fill="#d9d9d9" stroke-width="0"/><rect x="339.35999" y="501.81" width="15.68002" height="2.76999" fill="#b6b3c5" stroke-width="0"/><rect x="478.19" y="502.26999" width="15.67999" height="2.76999" fill="#b6b3c5" stroke-width="0"/><path d="m735.01001,381.89001H96.85c-4.88,0-8.85-3.97-8.85-8.85001V8.85c0-4.88,3.97-8.85,8.85-8.85h638.15995c4.88,0,8.84998,3.97,8.84998,8.85v364.20002c0,4.88-3.96997,8.85001-8.84998,8.85001h0l.00006-.01001Z" fill="#2f2e41" stroke-width="0"/><rect x="104.14" y="15.68" width="624.49001" height="352.36999" fill="#fff" stroke-width="0"/><path d="m0,505.53c0,.5.39999.91.91.91h824.03c.5,0,.90997-.39999.90997-.91s-.39996-.91-.90997-.91H.91c-.5,0-.91.39999-.91.91Z" fill="#2f2e43" stroke-width="0"/><path d="m184.09482,101.99967h-16.83627c-4.04324,0-7.33186-3.34082-7.33186-7.44824v-17.10352c0-4.10742,3.28862-7.44824,7.33186-7.44824h16.83627c4.04324,0,7.33186,3.34082,7.33186,7.44824v17.10352c0,4.10742-3.28862,7.44824-7.33186,7.44824Z" fill="#10b981" stroke-width="0"/><path d="m262.09482,101.99967h-16.83627c-4.04324,0-7.33186-3.34082-7.33186-7.44824v-17.10352c0-4.10742,3.28862-7.44824,7.33186-7.44824h16.83627c4.04324,0,7.33186,3.34082,7.33186,7.44824v17.10352c0,4.10742-3.28862,7.44824-7.33186,7.44824Z" fill="#10b981" stroke-width="0"/><path d="m341.09482,101.99967h-16.83627c-4.04324,0-7.33186-3.34082-7.33186-7.44824v-17.10352c0-4.10742,3.28862-7.44824,7.33186-7.44824h16.83627c4.04324,0,7.33186,3.34082,7.33186,7.44824v17.10352c0,4.10742-3.28862,7.44824-7.33186,7.44824Z" fill="#10b981" stroke-width="0"/><path d="m421.09482,101.99967h-16.83627c-4.04324,0-7.33186-3.34082-7.33186-7.44824v-17.10352c0-4.10742,3.28862-7.44824,7.33186-7.44824h16.83627c4.04324,0,7.33186,3.34082,7.33186,7.44824v17.10352c0,4.10742-3.28862,7.44824-7.33186,7.44824Z" fill="#d9d9d9" stroke-width="0"/><path d="m499.09482,101.99967h-16.83627c-4.04324,0-7.33186-3.34082-7.33186-7.44824v-17.10352c0-4.10742,3.28862-7.44824,7.33186-7.44824h16.83627c4.04324,0,7.33186,3.34082,7.33186,7.44824v17.10352c0,4.10742-3.28862,7.44824-7.33186,7.44824Z" fill="#d9d9d9" stroke-width="0"/><path d="m578.09482,101.99967h-16.83627c-4.04324,0-7.33186-3.34082-7.33186-7.44824v-17.10352c0-4.10742,3.28862-7.44824,7.33186-7.44824h16.83627c4.04324,0,7.33186,3.34082,7.33186,7.44824v17.10352c0,4.10742-3.28862,7.44824-7.33186,7.44824Z" fill="#d9d9d9" stroke-width="0"/><path d="m656.09482,101.99967h-16.83627c-4.04324,0-7.33186-3.34082-7.33186-7.44824v-17.10352c0-4.10742,3.28862-7.44824,7.33186-7.44824h16.83627c4.04324,0,7.33186,3.34082,7.33186,7.44824v17.10352c0,4.10742-3.28862,7.44824-7.33186,7.44824Z" fill="#d9d9d9" stroke-width="0"/><path d="m184.09482,162.99967h-16.83627c-4.04324,0-7.33186-3.34082-7.33186-7.44824v-17.10352c0-4.10742,3.28862-7.44824,7.33186-7.44824h16.83627c4.04324,0,7.33186,3.34082,7.33186,7.44824v17.10352c0,4.10742-3.28862,7.44824-7.33186,7.44824Z" fill="#d9d9d9" stroke-width="0"/><path d="m262.09482,162.99967h-16.83627c-4.04324,0-7.33186-3.34082-7.33186-7.44824v-17.10352c0-4.10742,3.28862-7.44824,7.33186-7.44824h16.83627c4.04324,0,7.33186,3.34082,7.33186,7.44824v17.10352c0,4.10742-3.28862,7.44824-7.33186,7.44824Z" fill="#d9d9d9" stroke-width="0"/><path d="m341.09482,162.99967h-16.83627c-4.04324,0-7.33186-3.34082-7.33186-7.44824v-17.10352c0-4.10742,3.28862-7.44824,7.33186-7.44824h16.83627c4.04324,0,7.33186,3.34082,7.33186,7.44824v17.10352c0,4.10742-3.28862,7.44824-7.33186,7.44824Z" fill="#d9d9d9" stroke-width="0"/><path d="m421.09482,162.99967h-16.83627c-4.04324,0-7.33186-3.34082-7.33186-7.44824v-17.10352c0-4.10742,3.28862-7.44824,7.33186-7.44824h16.83627c4.04324,0,7.33186,3.34082,7.33186,7.44824v17.10352c0,4.10742-3.28862,7.44824-7.33186,7.44824Z" fill="#d9d9d9" stroke-width="0"/><path d="m499.09482,162.99967h-16.83627c-4.04324,0-7.33186-3.34082-7.33186-7.44824v-17.10352c0-4.10742,3.28862-7.44824,7.33186-7.44824h16.83627c4.04324,0,7.33186,3.34082,7.33186,7.44824v17.10352c0,4.10742-3.28862,7.44824-7.33186,7.44824Z" fill="#d9d9d9" stroke-width="0"/><path d="m578.09482,162.99967h-16.83627c-4.04324,0-7.33186-3.34082-7.33186-7.44824v-17.10352c0-4.10742,3.28862-7.44824,7.33186-7.44824h16.83627c4.04324,0,7.33186,3.34082,7.33186,7.44824v17.10352c0,4.10742-3.28862,7.44824-7.33186,7.44824Z" fill="#d9d9d9" stroke-width="0"/><path d="m656.09482,162.99967h-16.83627c-4.04324,0-7.33186-3.34082-7.33186-7.44824v-17.10352c0-4.10742,3.28862-7.44824,7.33186-7.44824h16.83627c4.04324,0,7.33186,3.34082,7.33186,7.44824v17.10352c0,4.10742-3.28862,7.44824-7.33186,7.44824Z" fill="#d9d9d9" stroke-width="0"/><path d="m184.09482,223.99967h-16.83627c-4.04324,0-7.33186-3.34082-7.33186-7.44824v-17.10352c0-4.10742,3.28862-7.44824,7.33186-7.44824h16.83627c4.04324,0,7.33186,3.34082,7.33186,7.44824v17.10352c0,4.10742-3.28862,7.44824-7.33186,7.44824Z" fill="#d9d9d9" stroke-width="0"/><path d="m262.09482,223.99967h-16.83627c-4.04324,0-7.33186-3.34082-7.33186-7.44824v-17.10352c0-4.10742,3.28862-7.44824,7.33186-7.44824h16.83627c4.04324,0,7.33186,3.34082,7.33186,7.44824v17.10352c0,4.10742-3.28862,7.44824-7.33186,7.44824Z" fill="#d9d9d9" stroke-width="0"/><path d="m341.09482,223.99967h-16.83627c-4.04324,0-7.33186-3.34082-7.33186-7.44824v-17.10352c0-4.10742,3.28862-7.44824,7.33186-7.44824h16.83627c4.04324,0,7.33186,3.34082,7.33186,7.44824v17.10352c0,4.10742-3.28862,7.44824-7.33186,7.44824Z" fill="#d9d9d9" stroke-width="0"/><path d="m421.09482,223.99967h-16.83627c-4.04324,0-7.33186-3.34082-7.33186-7.44824v-17.10352c0-4.10742,3.28862-7.44824,7.33186-7.44824h16.83627c4.04324,0,7.33186,3.34082,7.33186,7.44824v17.10352c0,4.10742-3.28862,7.44824-7.33186,7.44824Z" fill="#d9d9d9" stroke-width="0"/><path d="m499.09482,223.99967h-16.83627c-4.04324,0-7.33186-3.34082-7.33186-7.44824v-17.10352c0-4.10742,3.28862-7.44824,7.33186-7.44824h16.83627c4.04324,0,7.33186,3.34082,7.33186,7.44824v17.10352c0,4.10742-3.28862,7.44824-7.33186,7.44824Z" fill="#d9d9d9" stroke-width="0"/><path d="m578.09482,223.99967h-16.83627c-4.04324,0-7.33186-3.34082-7.33186-7.44824v-17.10352c0-4.10742,3.28862-7.44824,7.33186-7.44824h16.83627c4.04324,0,7.33186,3.34082,7.33186,7.44824v17.10352c0,4.10742-3.28862,7.44824-7.33186,7.44824Z" fill="#d9d9d9" stroke-width="0"/><path d="m656.09482,223.99967h-16.83627c-4.04324,0-7.33186-3.34082-7.33186-7.44824v-17.10352c0-4.10742,3.28862-7.44824,7.33186-7.44824h16.83627c4.04324,0,7.33186,3.34082,7.33186,7.44824v17.10352c0,4.10742-3.28862,7.44824-7.33186,7.44824Z" fill="#d9d9d9" stroke-width="0"/><circle cx="267.32753" cy="134.19903" r="7" fill="#ff6363" stroke-width="0"/></svg>