<svg xmlns="http://www.w3.org/2000/svg" viewBox="0 0 833.60436 638.22869" xmlns:xlink="http://www.w3.org/1999/xlink"><path d="m20.71637,636.60466c0,.90073.72331,1.62403,1.62403,1.62403h809.63992c.90069,0,1.62403-.72331,1.62403-1.62403s-.72335-1.62403-1.62403-1.62403H22.3404c-.90072,0-1.62403.72331-1.62403,1.62403Z" fill="#2f2e43" stroke-width="0"/><path d="m440.55989,476.33668c-2.2231,13.47525-13.9493,23.78782-28.04423,23.78782s-25.82109-10.31257-28.04419-23.78782h-71.74861v155.49117h199.58563v-155.49113h-71.74863l.00004-.00004Z" fill="#b6b3c5" stroke-width="0"/><rect x="316.204" y="631.24777" width="19.72649" height="3.48113" fill="#b6b3c5" stroke-width="0"/><rect x="490.84147" y="631.82798" width="19.72649" height="3.48113" fill="#b6b3c5" stroke-width="0"/><path d="m813.90439,480.39801H11.12674c-6.13535,0-11.12674-4.99167-11.12674-11.12675V11.12674C0,4.99168,4.99139,0,11.12674,0h802.77765c6.13537,0,11.127,4.99168,11.127,11.12674v458.14456c0,6.13508-4.99171,11.12675-11.127,11.12675v-.00004Z" fill="#2f2e41" stroke-width="0"/><rect x="20.30667" y="19.72662" width="785.57844" height="443.26583" fill="#fff" stroke-width="0"/><rect x="150.90939" y="134.38655" width="207" height="59" fill="#10b981" stroke-width="0"/><line x1="169.40939" y1="146.88655" x2="200.76646" y2="146.88655" fill="none" stroke="#000" stroke-miterlimit="10" stroke-width="2"/><line x1="169.40939" y1="163.88655" x2="338.40939" y2="163.88655" fill="none" stroke="#000" stroke-miterlimit="10" stroke-width="2"/><line x1="388.60485" y1="163.88655" x2="430.05884" y2="163.88655" fill="none" stroke="#000" stroke-miterlimit="10" stroke-width="2"/><line x1="169.40939" y1="177.74146" x2="243.03994" y2="177.74146" fill="none" stroke="#000" stroke-miterlimit="10" stroke-width="2"/><line x1="169.40939" y1="263.88655" x2="278.90939" y2="263.88655" fill="none" stroke="#000" stroke-miterlimit="10" stroke-width="2"/><line x1="169.40939" y1="280.88655" x2="261.90939" y2="280.88655" fill="none" stroke="#000" stroke-miterlimit="10" stroke-width="2"/><line x1="169.40939" y1="294.74146" x2="243.03994" y2="294.74146" fill="none" stroke="#000" stroke-miterlimit="10" stroke-width="2"/><line x1="169.40939" y1="206.58976" x2="270.19129" y2="206.58976" fill="none" stroke="#000" stroke-miterlimit="10" stroke-width="2"/><line x1="169.40939" y1="221.01392" x2="338.40939" y2="221.01392" fill="none" stroke="#000" stroke-miterlimit="10" stroke-width="2"/><line x1="169.40939" y1="237.13503" x2="243.03994" y2="237.13503" fill="none" stroke="#000" stroke-miterlimit="10" stroke-width="2"/><line x1="365.40939" y1="80.88655" x2="365.40939" y2="371.88655" fill="none" stroke="#000" stroke-miterlimit="10" stroke-width="2"/><line x1="388.60485" y1="196.38655" x2="675.79127" y2="196.38655" fill="none" stroke="#000" stroke-miterlimit="10" stroke-width="2"/><line x1="388.60485" y1="214.41454" x2="556.40939" y2="214.41454" fill="none" stroke="#000" stroke-miterlimit="10" stroke-width="2"/><line x1="388.60485" y1="229.38655" x2="581.04165" y2="229.38655" fill="none" stroke="#000" stroke-miterlimit="10" stroke-width="2"/><line x1="388.60485" y1="245.99774" x2="736.40939" y2="245.99774" fill="none" stroke="#000" stroke-miterlimit="10" stroke-width="2"/></svg>