<svg xmlns="http://www.w3.org/2000/svg" width="720" height="606.465" viewBox="0 0 720 606.465" xmlns:xlink="http://www.w3.org/1999/xlink" role="img" artist="Katerina Limpitsouni" source="https://undraw.co/"><g transform="translate(-639.75 -282.063)"><rect width="469" height="109" rx="8" transform="translate(768.75 779.527)" fill="#fff" opacity="0.299"/><path d="M11.384,2.846a8.548,8.548,0,0,0-8.538,8.538V96.768a8.548,8.548,0,0,0,8.538,8.538H458.224a8.548,8.548,0,0,0,8.538-8.538V11.384a8.548,8.548,0,0,0-8.538-8.538H11.384m0-2.846H458.224a11.384,11.384,0,0,1,11.384,11.384V96.768a11.384,11.384,0,0,1-11.384,11.384H11.384A11.384,11.384,0,0,1,0,96.768V11.384A11.384,11.384,0,0,1,11.384,0Z" transform="translate(768.181 780.043)" fill="#090814"/><rect width="469" height="108" rx="8" transform="translate(768.75 569.527)" fill="#fff" opacity="0.299"/><path d="M11.384,2.846a8.548,8.548,0,0,0-8.538,8.538V96.768a8.548,8.548,0,0,0,8.538,8.538H458.224a8.548,8.548,0,0,0,8.538-8.538V11.384a8.548,8.548,0,0,0-8.538-8.538H11.384m0-2.846H458.224a11.384,11.384,0,0,1,11.384,11.384V96.768a11.384,11.384,0,0,1-11.384,11.384H11.384A11.384,11.384,0,0,1,0,96.768V11.384A11.384,11.384,0,0,1,11.384,0Z" transform="translate(768.181 569.431)" fill="#090814"/><path d="M548.675,235.233h-2.846V128.443H342.82V125.6H548.675Z" transform="translate(368.182 335.197)" fill="#3f3d56"/><circle cx="39.532" cy="39.532" r="39.532" transform="translate(639.75 414.407)" fill="#10b981"/><path d="M521.9,356.535a4.4,4.4,0,0,1-3.518-1.759L507.6,340.4a4.4,4.4,0,0,1,7.036-5.277l7.056,9.407,18.122-27.183a4.4,4.4,0,0,1,7.318,4.879l-21.57,32.355a4.4,4.4,0,0,1-3.537,1.957Z" transform="translate(151.987 117.98)" fill="#fff"/><path d="M606.93,235.233h-2.846V125.6H809.939v2.846H606.93Z" transform="translate(478.712 335.197)" fill="#3f3d56"/><circle cx="39.532" cy="39.532" r="39.532" transform="translate(1280.685 414.407)" fill="#10b981"/><path d="M972.3,356.535a4.4,4.4,0,0,1-3.518-1.759L957.993,340.4a4.4,4.4,0,1,1,7.036-5.277l7.056,9.407,18.122-27.183a4.4,4.4,0,1,1,7.318,4.879l-21.57,32.355a4.4,4.4,0,0,1-3.537,1.957Z" transform="translate(342.529 117.98)" fill="#fff"/><rect width="2.846" height="227.328" transform="translate(998.403 343.104)" fill="#3f3d56"/><circle cx="39.532" cy="39.532" r="39.532" transform="translate(964.207 282.063)" fill="#10b981"/><path d="M749.9,263.535a4.4,4.4,0,0,1-3.518-1.759L735.6,247.4a4.4,4.4,0,0,1,7.036-5.277l7.056,9.407,18.122-27.183a4.4,4.4,0,0,1,7.318,4.879l-21.57,32.355a4.4,4.4,0,0,1-3.537,1.957Z" transform="translate(248.444 78.636)" fill="#fff"/><path d="M623.087,474.741a9.973,9.973,0,0,1-9.961-9.961V439.165a9.961,9.961,0,0,1,19.923,0V464.78A9.973,9.973,0,0,1,623.087,474.741Z" transform="translate(197.003 171.468)" fill="#10b981"/><path d="M643.087,474.741a9.973,9.973,0,0,1-9.961-9.961V439.165a9.961,9.961,0,0,1,19.923,0V464.78a9.973,9.973,0,0,1-9.962,9.961Z" transform="translate(205.464 171.468)" fill="#10b981"/><path d="M663.087,474.741a9.973,9.973,0,0,1-9.961-9.961V439.165a9.961,9.961,0,0,1,19.923,0V464.78A9.973,9.973,0,0,1,663.087,474.741Z" transform="translate(213.925 171.468)" fill="#10b981"/><path d="M683.087,474.741a9.973,9.973,0,0,1-9.962-9.961V439.165a9.961,9.961,0,0,1,19.923,0V464.78a9.973,9.973,0,0,1-9.961,9.961Z" transform="translate(222.386 171.468)" fill="#10b981"/><path d="M241.131,2.769H.635a2.135,2.135,0,0,1,0-4.269h240.5a2.135,2.135,0,0,1,0,4.269Z" transform="translate(953.255 607.574)" fill="#090814"/><path d="M241.131,2.769H.635a2.135,2.135,0,0,1,0-4.269h240.5a2.135,2.135,0,0,1,0,4.269Z" transform="translate(953.255 625.652)" fill="#090814"/><path d="M241.131,2.769H.635a2.135,2.135,0,0,1,0-4.269h240.5a2.135,2.135,0,0,1,0,4.269Z" transform="translate(953.255 643.729)" fill="#090814"/><g transform="translate(768.181 676.16)"><rect width="469" height="107" rx="8" transform="translate(0.569 0.367)" fill="#fff" opacity="0.299"/><path d="M11.384,2.846a8.548,8.548,0,0,0-8.538,8.538V96.768a8.548,8.548,0,0,0,8.538,8.538H458.224a8.548,8.548,0,0,0,8.538-8.538V11.384a8.548,8.548,0,0,0-8.538-8.538H11.384m0-2.846H458.224a11.384,11.384,0,0,1,11.384,11.384V96.768a11.384,11.384,0,0,1-11.384,11.384H11.384A11.384,11.384,0,0,1,0,96.768V11.384A11.384,11.384,0,0,1,11.384,0Z" transform="translate(0 0)" fill="#090814"/><path d="M623.087,474.741a9.973,9.973,0,0,1-9.961-9.961V439.165a9.961,9.961,0,0,1,19.923,0V464.78A9.973,9.973,0,0,1,623.087,474.741Z" transform="translate(-570.764 -398.04)" fill="#10b981"/><path d="M643.087,474.741a9.973,9.973,0,0,1-9.961-9.961V439.165a9.961,9.961,0,0,1,19.923,0V464.78a9.973,9.973,0,0,1-9.962,9.961Z" transform="translate(-562.303 -398.04)" fill="#10b981"/><path d="M663.087,474.741a9.973,9.973,0,0,1-9.961-9.961V439.165a9.961,9.961,0,0,1,19.923,0V464.78A9.973,9.973,0,0,1,663.087,474.741Z" transform="translate(-553.842 -398.04)" fill="#f2f2f2"/><path d="M683.087,474.741a9.973,9.973,0,0,1-9.962-9.961V439.165a9.961,9.961,0,0,1,19.923,0V464.78a9.973,9.973,0,0,1-9.961,9.961Z" transform="translate(-545.381 -398.04)" fill="#10b981"/><path d="M241.131,2.769H.635a2.135,2.135,0,0,1,0-4.269h240.5a2.135,2.135,0,0,1,0,4.269Z" transform="translate(185.488 38.066)" fill="#090814"/><path d="M241.131,2.769H.635a2.135,2.135,0,0,1,0-4.269h240.5a2.135,2.135,0,0,1,0,4.269Z" transform="translate(185.488 56.143)" fill="#090814"/><path d="M241.131,2.769H.635a2.135,2.135,0,0,1,0-4.269h240.5a2.135,2.135,0,0,1,0,4.269Z" transform="translate(185.488 74.22)" fill="#090814"/></g><path d="M623.087,474.741a9.973,9.973,0,0,1-9.961-9.961V439.165a9.961,9.961,0,0,1,19.923,0V464.78A9.973,9.973,0,0,1,623.087,474.741Z" transform="translate(197.003 382.003)" fill="#10b981"/><path d="M643.087,474.741a9.973,9.973,0,0,1-9.961-9.961V439.165a9.961,9.961,0,0,1,19.923,0V464.78a9.973,9.973,0,0,1-9.962,9.961Z" transform="translate(205.464 382.003)" fill="#10b981"/><path d="M663.087,474.741a9.973,9.973,0,0,1-9.961-9.961V439.165a9.961,9.961,0,0,1,19.923,0V464.78A9.973,9.973,0,0,1,663.087,474.741Z" transform="translate(213.925 382.003)" fill="#10b981"/><path d="M683.087,474.741a9.973,9.973,0,0,1-9.962-9.961V439.165a9.961,9.961,0,0,1,19.923,0V464.78a9.973,9.973,0,0,1-9.961,9.961Z" transform="translate(222.386 382.003)" fill="#f2f2f2"/><path d="M241.131,2.769H.635a2.135,2.135,0,0,1,0-4.269h240.5a2.135,2.135,0,0,1,0,4.269Z" transform="translate(953.255 818.109)" fill="#090814"/><path d="M241.131,2.769H.635a2.135,2.135,0,0,1,0-4.269h240.5a2.135,2.135,0,0,1,0,4.269Z" transform="translate(953.255 836.186)" fill="#090814"/><path d="M241.131,2.769H.635a2.135,2.135,0,0,1,0-4.269h240.5a2.135,2.135,0,0,1,0,4.269Z" transform="translate(953.255 854.263)" fill="#090814"/></g></svg>